<?xml version="1.0" encoding="utf-8"?>
<svg version="1.1" id="Layer_1" xmlns="http://www.w3.org/2000/svg" x="0px" y="0px" width="100%" viewBox="0 0 956 271" enable-background="new 0 0 956 271">
  <path fill="#FD6105" opacity="1.000000" stroke="none" d=" M148.357346,129.929169 C148.323303,129.196899 148.289261,128.464645 148.668335,127.280426 C148.824265,125.193436 148.567078,123.558411 148.309891,121.923378 C148.309891,121.923378 148.067444,121.677139 147.930969,121.389832 C147.610794,120.953423 147.401230,120.891243 147.165802,120.915970 C147.165802,120.915970 147.102768,120.977242 146.989059,120.580284 C142.771225,118.426285 130.776886,121.250221 128.110168,124.614281 C128.025711,124.720833 128.079361,124.936874 128.068619,125.101868 C128.068619,125.101868 128.002106,125.016876 127.684647,125.019302 C126.586288,125.697189 125.805382,126.372643 125.024475,127.048096 C125.024475,127.048096 125.003563,126.997734 124.703506,127.010910 C123.998672,127.448250 123.593895,127.872398 123.189117,128.296555 C123.189117,128.296555 123.150841,128.183182 122.923126,128.211975 C122.485397,128.531021 122.275383,128.821259 122.065369,129.111496 C122.065369,129.111496 122.022240,129.025406 121.805695,129.108093 C121.404388,129.479370 121.219627,129.767944 121.034866,130.056519 C121.034866,130.056519 121.005272,129.997635 120.654205,129.990555 C117.258904,131.000824 114.037498,131.831390 113.971756,135.988892 C113.483253,136.571838 112.994743,137.154770 111.914322,137.870178 C111.008781,138.476959 110.695152,138.951279 110.381531,139.425598 C110.381531,139.425598 109.981651,139.247986 109.815422,139.225220 C108.798660,140.178665 107.948128,141.154892 107.097595,142.131104 C107.097595,142.131104 107.032387,142.040909 106.817314,142.122925 C106.422028,142.506271 106.241814,142.807602 106.061600,143.108948 C106.061600,143.108948 106.026558,143.026688 105.807144,143.112045 C105.409340,143.494797 105.230942,143.792206 105.052544,144.089600 C105.052544,144.089600 105.014832,144.012817 104.794861,144.105042 C104.403351,144.496643 104.231796,144.796021 104.060249,145.095383 C104.060249,145.095383 104.013298,145.016602 103.796219,145.111099 C103.405327,145.504608 103.231506,145.803619 103.057693,146.102631 C103.057693,146.102631 103.021957,146.021820 102.802544,146.107025 C102.400909,146.486069 102.218689,146.779892 102.036469,147.073715 C102.036469,147.073715 102.007393,147.007309 101.786911,147.095337 C101.384560,147.472488 101.202698,147.761597 101.020836,148.050720 C101.020836,148.050720 101.001778,147.998856 100.775299,148.082489 C100.367271,148.452087 100.185715,148.738022 100.004158,149.023972 C100.004158,149.023972 99.998009,148.998169 99.643326,148.987427 C96.891876,151.360779 94.495094,153.744888 92.098312,156.128983 C92.098312,156.128983 92.031609,156.042084 91.819458,156.130997 C91.431244,156.523636 91.255188,156.827377 91.079132,157.131119 C91.079132,157.131119 91.041618,157.041229 90.824448,157.122116 C90.416130,157.492233 90.224976,157.781464 90.033821,158.070694 C90.033821,158.070694 90.008377,158.004532 89.780289,158.095886 C89.371483,158.486832 89.190758,158.786423 89.010025,159.086014 C88.969307,159.419205 88.806175,159.674026 87.928543,159.909592 C84.578537,162.672821 81.820633,165.376953 79.062729,168.081085 C79.062721,168.081085 79.001747,168.016724 78.787865,168.105072 C78.396675,168.486450 78.219376,168.779480 78.042084,169.072510 C78.042084,169.072510 78.006203,169.005386 77.786560,169.093079 C77.385208,169.466751 77.203514,169.752731 77.021820,170.038727 C77.021820,170.038727 77.002098,169.998322 76.651833,169.985718 C73.560585,172.682983 70.819603,175.392838 68.078613,178.102707 C68.078613,178.102707 68.011963,178.027145 67.799362,178.114777 C67.410149,178.500854 67.233543,178.799301 67.056946,179.097763 C67.056946,179.097763 67.018349,179.018250 66.800217,179.107712 C66.404678,179.492905 66.227272,179.788620 66.049858,180.084351 C66.049858,180.084351 66.010468,180.010590 65.792603,180.102570 C65.394905,180.485931 65.215080,180.777328 65.035248,181.068726 C65.035248,181.068726 65.006828,181.003723 64.783417,181.090134 C64.378746,181.466080 64.197495,181.755615 64.016251,182.045135 C64.016243,182.045135 63.999477,181.999390 63.628464,181.996429 C61.996952,182.187546 60.736458,182.381622 58.970188,182.653564 C58.970188,180.678604 58.970161,179.047318 58.970188,177.416031 C58.970673,146.352753 58.682587,115.285660 59.092121,84.227768 C59.300182,68.449005 56.583744,52.423584 61.948936,36.935226 C61.948936,36.935226 61.998802,36.995670 62.338921,36.959976 C63.414383,35.536907 64.149734,34.149532 64.885086,32.762157 C70.063568,27.056850 76.598488,23.920982 84.204330,23.888617 C111.997231,23.770348 139.802521,23.463682 167.580246,24.152102 C181.933411,24.507818 194.613052,31.031368 205.447128,40.180862 C224.663696,56.409477 234.799866,77.213287 234.116730,102.643417 C233.359314,130.838943 219.899139,152.144394 197.492401,168.352173 C183.472214,178.493576 167.941269,183.943314 150.474838,183.313278 C147.669601,183.212097 144.857574,183.299088 141.085098,183.299088 C141.085098,187.037888 141.268463,190.469452 141.006210,193.866608 C140.878860,195.516464 140.131058,198.327072 139.291290,198.473465 C137.248993,198.829514 134.422546,198.629547 132.925751,197.409653 C128.950333,194.169678 125.481934,190.300583 121.865562,186.628845 C117.545120,182.242233 113.350647,177.729507 108.968025,173.406860 C105.817719,170.299667 104.865280,167.505539 109.011993,164.445480 C110.599266,163.274170 111.856567,161.655685 113.828331,160.032410 C114.583664,159.527466 114.774895,159.231094 114.966133,158.934708 C114.966133,158.934708 114.995697,158.996185 115.222206,158.901749 C115.627151,158.508347 115.805595,158.209396 115.984032,157.910431 C116.453217,157.342529 116.922401,156.774628 117.907646,156.019089 C118.604675,155.533569 118.785645,155.235703 118.966614,154.937836 C118.966621,154.937836 118.996597,154.997147 119.220497,154.905762 C119.615883,154.518478 119.787369,154.222580 119.958862,153.926682 C119.958870,153.926682 119.993385,153.992950 120.215248,153.895264 C120.600037,153.492935 120.762970,153.188324 120.925903,152.883698 C120.925903,152.883698 120.971611,152.970551 121.186920,152.884537 C121.587540,152.506714 121.772858,152.214905 121.958176,151.923096 C121.958168,151.923096 121.989929,151.999252 122.342094,151.999283 C123.782204,150.647568 124.870148,149.295807 125.958084,147.944046 C125.958084,147.944046 125.999161,147.996658 126.221558,147.906021 C126.616928,147.521164 126.789917,147.226929 126.962906,146.932709 C126.962906,146.932709 126.995605,146.995132 127.222610,146.897247 C127.625526,146.495407 127.801430,146.191422 127.977341,145.887451 C128.456192,145.319962 128.935043,144.752472 130.012817,144.078491 C131.082077,143.323853 131.552383,142.675690 132.022705,142.027542 C132.022705,142.027542 132.000000,142.000000 132.416718,142.019470 C138.557709,140.550247 138.471786,140.558945 139.097794,146.739624 C139.213165,147.878555 140.338623,148.915176 140.997864,149.999023 C140.997864,149.999023 141.000000,150.000000 141.021164,150.396393 C142.528656,151.517319 144.092178,152.982101 145.487793,152.836594 C151.149551,152.246307 156.921326,151.699905 162.333969,150.075714 C166.153854,148.929504 169.460785,146.073883 172.996719,143.981415 C172.996719,143.981415 172.997772,144.004105 173.301758,144.007660 C174.053314,143.634140 174.500854,143.257095 174.948410,142.880035 C174.948410,142.880035 174.967804,142.963669 175.185242,142.898529 C175.607285,142.563934 175.811890,142.294464 176.016479,142.024979 C176.016479,142.024979 176.000610,141.999390 176.369049,142.027893 C177.484558,141.358627 178.231644,140.660858 178.978729,139.963104 C178.978729,139.963104 178.998032,140.002045 179.353470,140.016083 C180.769760,138.975296 181.830612,137.920441 182.891479,136.865601 C182.891479,136.865601 182.979813,136.952545 183.186478,136.873871 C183.577347,136.499435 183.761551,136.203674 183.945770,135.907913 C183.945770,135.907913 183.982224,135.998734 184.326202,135.995529 C188.497101,135.151810 189.634048,132.313782 189.957733,128.871841 C189.972336,128.544205 190.115265,128.288223 190.959808,128.008331 C192.350815,126.934372 193.353104,126.057877 193.958054,124.962029 C200.904404,112.378754 202.350845,99.141953 197.778473,85.531250 C196.725281,82.396202 193.958618,79.836777 191.980469,77.012459 C191.980469,77.012459 192.000610,77.000496 192.021881,76.646431 C191.325699,75.553886 190.608231,74.815407 189.890762,74.076935 C189.890762,74.076927 189.968307,74.017448 189.884720,73.804153 C189.506378,73.409332 189.211624,73.227798 188.916870,73.046265 C188.916870,73.046265 188.989548,73.011421 188.897614,72.792511 C188.511124,72.398521 188.216553,72.223434 187.921997,72.048355 C187.921997,72.048355 187.993073,72.007614 187.900284,71.788849 C187.515610,71.393936 187.223740,71.217781 186.931854,71.041634 C186.931854,71.041634 187.002274,71.008530 187.000305,70.657585 C185.983932,69.547783 184.969528,68.788918 183.955139,68.030052 C183.955139,68.030052 184.000000,68.000267 183.907654,67.770798 C183.512192,67.379013 183.209076,67.216698 182.905960,67.054382 C182.905960,67.054390 182.989899,67.019539 182.945984,66.696945 C181.912949,65.933304 180.923843,65.492249 179.934723,65.051193 C179.934723,65.051193 179.997299,65.002487 179.952942,64.681351 C178.250900,63.588028 176.593231,62.815838 174.935562,62.043648 C174.935562,62.043652 174.992142,62.003212 174.848846,61.690849 C173.656906,60.617073 172.682281,59.343987 171.547195,59.179726 C165.504959,58.305309 159.430191,57.203709 153.352539,57.111252 C135.711594,56.842884 118.063911,57.013092 100.418877,57.021545 C94.346359,57.024452 93.212334,58.021408 93.072502,64.234924 C92.918976,71.056534 93.025108,77.884064 93.023605,84.709015 C93.022362,90.368675 92.884605,96.034737 93.134781,101.683456 C93.196640,103.080284 94.529633,104.420815 95.278313,105.787224 C96.174927,104.841751 97.071533,103.896278 97.968147,102.950806 C97.968147,102.950806 98.000458,102.998009 98.225861,102.911674 C98.621803,102.532799 98.792328,102.240250 98.962860,101.947708 C98.962860,101.947708 98.998886,101.999588 99.225037,101.911331 C99.622246,101.532349 99.793312,101.241608 99.964371,100.950874 C99.964371,100.950874 99.999817,100.999336 100.226440,100.913452 C100.629173,100.541382 100.805290,100.255196 100.981407,99.969017 C100.981407,99.969017 100.999290,100.000847 101.352516,100.014786 C103.134293,98.680786 104.562843,97.332840 105.991402,95.984894 C105.991402,95.984901 105.999702,96.000610 106.376129,96.021179 C114.734200,92.827003 122.770622,90.099655 131.636368,90.931206 C135.737335,91.315857 139.912979,91.138954 144.037369,90.907021 C145.405273,90.830101 146.718796,89.786087 148.057190,89.184219 C148.057190,89.184219 148.026825,89.056923 148.474655,88.950867 C149.280869,86.313354 150.007538,83.768593 149.916794,81.253326 C149.754868,76.765213 151.595428,74.694252 156.061905,74.941589 C156.061905,74.941589 155.997879,74.995720 156.044830,75.309433 C157.773514,76.713837 159.455261,77.804512 161.137009,78.895195 C161.137009,78.895195 161.022720,78.970383 161.057922,79.260635 C161.766266,80.007828 162.439407,80.464760 163.112549,80.921692 C163.112549,80.921692 163.031738,80.976341 163.114380,81.191948 C163.492279,81.591568 163.787567,81.775581 164.082840,81.959595 C164.082840,81.959595 164.007950,81.991051 164.004700,82.341248 C165.362366,83.771156 166.723282,84.850853 168.084183,85.930557 C168.084183,85.930557 168.018860,85.995010 168.114029,86.208374 C168.511734,86.591957 168.814270,86.762184 169.116806,86.932404 C169.116806,86.932404 169.032547,86.967224 169.118851,87.185760 C169.502274,87.585716 169.799393,87.767136 170.096512,87.948547 C170.096512,87.948547 170.007278,87.980690 170.006317,88.330505 C171.370438,89.759468 172.735535,90.838615 174.100632,91.917755 C174.100632,91.917755 174.025772,91.986084 174.118408,92.198174 C174.513687,92.584259 174.816345,92.758255 175.118988,92.932259 C175.118988,92.932259 175.021225,92.971016 175.051697,93.271835 C175.753265,94.024879 176.424362,94.477104 177.095444,94.929321 C177.095444,94.929321 177.019852,94.986076 177.109589,95.202621 C177.500259,95.594467 177.801193,95.769753 178.102127,95.945038 C178.102127,95.945045 178.023499,95.976982 178.112350,96.196869 C178.502197,96.591698 178.803177,96.766632 179.104172,96.941574 C179.104172,96.941574 179.024002,96.976540 179.112732,97.193489 C179.493835,97.593842 179.786179,97.777252 180.078537,97.960663 C180.078537,97.960663 180.007507,97.987877 180.093201,98.211220 C180.471512,98.614258 180.764130,98.793961 181.056763,98.973656 C181.056763,98.973656 181.001389,98.999008 181.024399,99.305809 C181.530563,99.881310 182.013702,100.150017 182.496857,100.418716 C182.496857,100.418716 182.534409,100.538895 182.383728,100.987045 C182.004105,103.425720 181.775162,105.416245 181.546234,107.406776 C181.546234,107.406776 181.450439,107.416626 181.136917,107.404221 C180.726761,107.731850 180.630127,108.071899 180.533493,108.411942 C180.533493,108.411942 180.438492,108.424507 180.131805,108.411041 C179.728119,108.736511 179.631119,109.075455 179.534134,109.414398 C179.534134,109.414398 179.442154,109.453911 179.081940,109.363312 C178.138138,110.171333 177.554535,111.069962 176.970947,111.968582 C176.970932,111.968582 177.000610,111.999664 176.740875,112.074982 C176.323914,112.443169 176.166687,112.736031 176.009460,113.028900 C176.009460,113.028900 175.996490,112.999420 175.767426,113.088959 C175.363235,113.465714 175.188095,113.752930 175.012970,114.040146 C175.012970,114.040146 175.000351,113.997345 174.687347,114.019157 C173.913727,114.693451 173.453094,115.345932 172.992447,115.998405 C172.992447,115.998405 172.999390,115.999390 172.633942,115.979645 C167.399307,118.567978 162.963852,121.583916 161.508957,127.402496 C161.508957,127.402496 161.425491,127.386230 161.116257,127.382538 C160.659668,127.706963 160.512299,128.035080 160.364944,128.363205 C160.364944,128.363205 159.984024,128.045395 159.878159,128.204468 C159.688721,128.709778 159.605148,129.056030 159.521576,129.402267 C159.521561,129.402267 159.431976,129.449387 159.068466,129.352356 C157.490768,130.530563 156.276581,131.805801 155.062378,133.081055 C155.062378,133.081055 154.991913,133.019104 154.658508,133.000366 C152.335861,131.964142 150.346603,130.946655 148.357346,129.929169 z"/>
  <path fill="#F8630B" opacity="1.000000" stroke="none" d=" M737.989807,104.772873 C739.061340,104.809525 740.132812,104.846184 741.925476,104.919098 C743.097778,104.897964 743.548950,104.840576 744.000122,104.783188 C744.000122,104.783188 744.421021,104.990685 744.661560,105.472885 C744.902100,108.415245 744.902100,110.875412 744.902100,114.680382 C747.343018,112.083885 748.736694,110.601341 750.130432,109.118797 C758.053162,102.286438 771.892456,101.173058 782.807739,106.644936 C796.124023,113.320480 803.489868,128.245285 801.910339,145.315491 C800.504089,160.512299 790.860107,172.858200 777.057556,177.131241 C766.199829,180.492630 756.942261,178.304474 746.169800,169.462402 C746.169800,181.113205 746.169800,192.274826 746.169800,203.808014 C739.508362,203.808014 733.466431,203.808014 727.138550,203.808014 C727.062988,202.155487 726.923950,200.526840 726.923523,198.898178 C726.915710,169.579803 726.900635,140.261368 726.983582,110.943207 C726.989197,108.970360 727.762390,106.999680 729.031616,105.025284 C732.586365,104.939346 735.288086,104.856110 737.989807,104.772873 M776.058289,124.394104 C770.493164,119.475098 764.119263,118.796417 757.433899,121.322716 C748.155762,124.828766 743.325134,136.840210 746.474426,147.912308 C748.640198,155.526581 755.086426,160.703415 762.818176,161.037460 C772.080017,161.437592 778.580322,157.428421 781.327087,149.098160 C784.245117,140.248688 782.814941,132.064880 776.058289,124.394104 z"/>
  <path fill="#F9630B" opacity="1.000000" stroke="none" d=" M717.697510,138.321136 C717.663452,150.236771 715.301392,160.819046 706.721436,169.280548 C696.678711,179.184677 675.850403,183.347763 662.147217,170.148239 C662.147217,181.751999 662.147217,192.719543 662.147217,203.964996 C655.538330,203.964996 649.616455,203.964996 643.197937,203.964996 C643.197937,171.160477 643.197937,138.458923 643.197937,105.313675 C648.760620,105.313675 654.448792,105.313675 660.508728,105.313675 C660.709534,107.849518 660.903381,110.297379 661.043213,112.063217 C665.907349,109.449532 670.696167,105.519104 676.118591,104.206902 C695.503662,99.515846 714.136841,112.973412 716.987854,132.936234 C717.222900,134.581802 717.443176,136.229492 717.697510,138.321136 M662.339050,147.645447 C664.043213,153.535034 667.166077,158.087128 673.381897,160.029434 C681.429016,162.544006 689.705750,160.656082 694.377930,155.044250 C699.770081,148.567444 700.577759,137.364304 696.218262,129.692154 C692.298584,122.794151 686.270630,119.341492 678.479553,120.152092 C670.736511,120.957703 665.038696,125.337990 663.111145,133.028229 C662.008179,137.428650 662.405334,142.205048 662.339050,147.645447 z"/>
  <path fill="#FA640B" opacity="1.000000" stroke="none" d=" M286.232605,78.016296 C298.697998,78.029854 310.698517,77.756088 322.679016,78.127594 C335.256927,78.517624 345.750977,83.253761 351.594818,95.129944 C363.062225,118.434692 347.504395,143.325851 321.178314,143.961166 C315.039001,144.109344 308.893066,143.983078 302.112488,143.983078 C302.112488,154.990616 302.112488,165.701492 302.112488,176.699432 C295.238708,176.699432 289.004028,176.699432 282.485229,176.699432 C282.371765,175.553497 282.194946,174.599777 282.194916,173.646072 C282.193756,143.166977 282.232635,112.687851 282.182709,82.208862 C282.178345,79.556442 282.283508,77.476013 286.232605,78.016296 M302.014648,117.450714 C302.014648,120.513153 302.014648,123.575592 302.014648,126.953339 C307.229156,126.953339 311.532043,126.960487 315.834869,126.949425 C317.327942,126.945587 318.832245,127.005203 320.312042,126.850441 C329.143311,125.926788 334.153290,121.033302 334.859344,112.719269 C335.531647,104.802704 331.466400,97.812157 323.918396,96.694046 C316.872986,95.650383 309.551392,96.470955 302.011536,96.470955 C302.011536,103.239754 302.011536,109.852943 302.014648,117.450714 z"/>
  <path fill="#F8630B" opacity="1.000000" stroke="none" d=" M465.184814,107.683716 C487.055450,119.770996 489.667664,149.727814 474.289368,166.915024 C464.810211,177.509171 447.222351,181.568253 431.551880,176.021423 C418.849426,171.525177 409.721741,158.130157 408.886200,144.258072 C407.597382,122.860298 420.561676,108.481049 435.320312,104.572182 C445.519684,101.870842 455.383148,102.813873 465.184814,107.683716 M463.829559,148.940262 C464.148376,147.482773 464.519501,146.034500 464.777893,144.566376 C467.028748,131.778091 457.437439,119.491356 445.704956,120.111069 C436.932983,120.574409 429.270874,127.851685 428.052643,136.876892 C426.533264,148.132858 431.722412,157.496338 441.071808,160.369171 C450.246613,163.188324 458.680176,159.166870 463.829559,148.940262 z"/>
  <path fill="#F8640C" opacity="1.000000" stroke="none" d=" M862.409119,181.310501 C862.597900,177.473373 863.592651,173.611069 862.440491,170.559387 C854.713684,150.094864 846.525574,129.804596 838.506287,109.450256 C838.030579,108.242867 837.720764,106.970108 837.075989,104.900284 C843.673706,104.900284 849.759888,104.740479 855.820190,105.064537 C856.780701,105.115898 857.985962,107.221100 858.467102,108.591263 C863.890076,124.034752 869.193604,139.520157 875.035828,156.463837 C876.955444,150.976791 878.496155,146.765152 879.904541,142.509750 C883.705078,131.026459 887.478271,119.533913 891.193054,108.022667 C892.009766,105.491859 893.300842,104.249382 896.198120,104.372787 C901.613953,104.603447 907.046631,104.439087 913.361450,104.439087 C909.199646,115.262123 905.561035,124.982933 901.732544,134.628418 C892.989014,156.656921 884.192749,178.664932 875.264038,200.618698 C874.664856,202.091995 872.841736,203.980774 871.480347,204.072052 C865.730225,204.457642 859.939453,204.235367 853.272583,204.235367 C856.411011,196.318466 859.316406,188.989410 862.409119,181.310501 z"/>
  <path fill="#F8630B" opacity="1.000000" stroke="none" d=" M583.184143,178.012344 C569.796326,174.501480 563.856506,167.794739 563.215820,153.220795 C562.521729,137.433929 563.058533,121.592941 563.058533,105.312752 C569.310242,105.312752 575.343628,105.312752 582.022278,105.312752 C582.022278,114.951889 581.946777,124.565384 582.051514,134.176910 C582.111206,139.655029 582.008423,145.197281 582.803772,150.588959 C583.766724,157.116699 587.697632,160.377869 593.728760,160.912460 C599.543457,161.427841 606.333923,157.485229 607.949890,152.007233 C608.917847,148.726166 609.108582,145.133804 609.147888,141.675690 C609.283813,129.697327 609.200256,117.716476 609.200256,105.284592 C615.434875,105.284592 621.469116,105.284592 627.864014,105.284592 C627.864014,129.026291 627.864014,152.738892 627.864014,176.723587 C622.522949,176.723587 617.416748,176.723587 611.930725,176.723587 C611.643921,174.278442 611.363098,171.884705 610.960266,168.450500 C602.970459,176.188843 594.289978,180.322174 583.184143,178.012344 z"/>
  <path fill="#F7650E" opacity="1.000000" stroke="none" d=" M550.656494,127.394562 C547.513245,127.655746 544.683899,127.615707 541.858459,127.703758 C537.652283,127.834846 534.258118,127.857338 531.989014,122.701385 C529.512756,117.074905 517.560181,116.008949 512.776428,120.077637 C509.100464,123.204102 509.803894,128.323441 514.661560,129.869873 C520.306396,131.666916 526.261108,132.491425 532.082642,133.732101 C546.702087,136.847748 552.285339,142.856033 552.129517,155.311996 C551.984192,166.926666 543.922607,175.567245 530.899780,177.896805 C522.408020,179.415817 514.016418,178.983124 505.903931,175.850449 C497.050140,172.431549 491.214417,164.276657 491.459290,155.132401 C496.196320,155.132401 500.971130,155.037064 505.735413,155.218353 C506.615906,155.251862 507.660461,156.246689 508.278870,157.063217 C513.282654,163.669785 522.072449,166.214050 529.557556,162.436569 C531.637207,161.387070 533.882446,158.302139 533.875244,156.158310 C533.868347,154.093765 531.432800,150.876999 529.389771,150.198944 C523.450928,148.227921 517.141174,147.407471 511.037689,145.891052 C503.031860,143.901993 495.840088,140.638901 493.167267,131.868820 C490.481720,123.057045 494.473297,113.017174 503.325165,108.049881 C515.640564,101.139015 528.458435,100.861458 540.705933,108.081825 C547.614624,112.154762 551.686279,118.569237 550.656494,127.394562 z"/>
  <path fill="#F8640E" opacity="1.000000" stroke="none" d=" M830.043091,161.995178 C830.042603,167.115509 830.042603,171.736755 830.042603,176.673630 C823.641968,176.673630 817.735474,176.673630 811.449707,176.673630 C811.449707,143.425583 811.449707,110.233994 811.449707,76.616730 C817.374512,76.616730 823.396729,76.616730 830.043640,76.616730 C830.043640,105.030640 830.043640,133.263367 830.043091,161.995178 z"/>
  <path fill="#F8640C" opacity="1.000000" stroke="none" d=" M376.902588,176.971008 C372.468628,176.969818 368.518036,176.969818 364.280731,176.969818 C364.280731,152.895615 364.280731,129.339783 364.280731,105.320061 C369.959778,105.320061 375.668060,105.320061 382.012634,105.320061 C382.129974,107.998306 382.253876,110.826126 382.377747,113.653946 C387.153442,106.110420 393.997375,103.344131 402.264038,103.043709 C405.377991,102.930550 406.859497,103.827835 406.708344,107.250710 C406.482910,112.356064 406.649902,117.478745 406.649902,121.765709 C400.846222,123.269463 395.698578,124.292854 390.776031,125.974869 C386.688354,127.371628 384.262848,130.903656 384.027344,135.087265 C383.477051,144.863419 383.399384,154.667191 383.189758,164.461044 C383.105133,168.414612 383.175812,172.371506 383.175812,176.972214 C380.928467,176.972214 379.157196,176.972214 376.902588,176.971008 z"/>
  <path fill="#F8650C" opacity="1.000000" stroke="none" d=" M75.217445,194.226166 C81.464714,188.545624 87.449150,183.104843 93.433586,177.664062 C93.906052,177.873138 94.378517,178.082214 94.850990,178.291290 C93.589523,191.612930 97.132332,205.328644 91.192886,218.209564 C89.593407,221.678391 86.606689,224.695480 83.730415,227.349518 C77.261177,233.318939 70.531273,239.014725 63.738808,244.617416 C62.394173,245.726547 60.293686,245.919327 58.541763,246.534683 C58.031250,245.059921 57.102966,243.592148 57.078159,242.109268 C56.919476,232.624664 56.857166,223.134827 57.035828,213.651840 C57.065151,212.095291 58.097260,210.211411 59.254574,209.082047 C64.370499,204.089676 69.701485,199.317688 75.217445,194.226166 z"/>
  <path fill="#E4722F" opacity="1.000000" stroke="none" d=" M61.632721,37.091469 C56.583744,52.423584 59.300182,68.449005 59.092121,84.227768 C58.682587,115.285660 58.970673,146.352753 58.970188,177.416031 C58.970161,179.047318 58.970188,180.678604 58.970188,182.653564 C60.736458,182.381622 61.996952,182.187546 63.649681,182.008377 C62.133808,183.729904 60.225700,185.436508 57.335724,188.021301 C57.134491,184.988525 56.921505,183.271606 56.921143,181.554642 C56.912075,138.810349 56.771893,96.064781 57.128338,53.323383 C57.173122,47.953560 59.855953,42.605732 61.632721,37.091469 z"/>
  <path fill="#E4722F" opacity="1.000000" stroke="none" d=" M97.602432,103.042969 C97.071533,103.896278 96.174927,104.841751 95.278313,105.787224 C94.529633,104.420815 93.196640,103.080284 93.134781,101.683456 C92.884605,96.034737 93.022362,90.368675 93.023605,84.709015 C93.025108,77.884064 92.918976,71.056534 93.072502,64.234924 C93.212334,58.021408 94.346359,57.024452 100.418877,57.021545 C118.063911,57.013092 135.711594,56.842884 153.352539,57.111252 C159.430191,57.203709 165.504959,58.305309 171.547195,59.179726 C172.682281,59.343987 173.656906,60.617073 174.840118,61.724503 C166.459122,61.093834 157.960342,59.504951 149.424454,59.271172 C132.955490,58.820122 116.463760,59.263996 99.985558,59.038273 C95.972435,58.983303 94.856140,60.253361 94.909447,64.121231 C95.074608,76.104065 94.862457,88.091759 94.939339,100.076660 C94.947220,101.305817 93.509407,104.389709 97.602432,103.042969 z"/>
  <path fill="#E4722F" opacity="1.000000" stroke="none" d=" M192.021210,77.368484 C193.958618,79.836777 196.725281,82.396202 197.778473,85.531250 C202.350845,99.141953 200.904404,112.378754 193.958054,124.962029 C193.353104,126.057877 192.350815,126.934372 191.171295,127.926727 C193.219177,121.163330 196.396774,114.546921 197.858994,107.570953 C200.063736,97.052399 197.765823,86.943573 192.021210,77.368484 z"/>
  <path fill="#E4722F" opacity="1.000000" stroke="none" d=" M147.585144,89.176117 C146.718796,89.786087 145.405273,90.830101 144.037369,90.907021 C139.912979,91.138954 135.737335,91.315857 131.636368,90.931206 C122.770622,90.099655 114.734200,92.827003 106.368774,96.015572 C112.265213,90.642662 119.872330,89.445129 127.716766,89.233582 C134.178101,89.059341 140.647369,89.178764 147.585144,89.176117 z"/>
  <path fill="#E4722F" opacity="1.000000" stroke="none" d=" M172.633926,144.022675 C169.460785,146.073883 166.153854,148.929504 162.333969,150.075714 C156.921326,151.699905 151.149551,152.246307 145.487793,152.836594 C144.092178,152.982101 142.528656,151.517319 141.020996,150.398590 C149.214645,152.438782 156.931549,149.962845 164.599518,147.472946 C167.246613,146.613388 169.718964,145.215759 172.633926,144.022675 z"/>
  <path fill="#E4722F" opacity="1.000000" stroke="none" d=" M128.444885,125.058113 C128.079361,124.936874 128.025711,124.720833 128.110168,124.614281 C130.776886,121.250221 142.771225,118.426285 146.961884,120.545746 C140.972656,122.276894 134.896912,123.645630 128.444885,125.058113 z"/>
  <path fill="#E4722F" opacity="1.000000" stroke="none" d=" M155.807083,74.630661 C151.595428,74.694252 149.754868,76.765213 149.916794,81.253326 C150.007538,83.768593 149.280869,86.313354 148.539734,88.944092 C148.211868,86.258026 148.331772,83.472153 148.308777,80.687462 C148.251801,73.790817 148.680664,73.390228 155.807083,74.630661 z"/>
  <path fill="#E4722F" opacity="1.000000" stroke="none" d=" M141.062012,149.543091 C140.338623,148.915176 139.213165,147.878555 139.097794,146.739624 C138.471786,140.558945 138.557709,140.550247 132.430206,142.031342 C134.432770,141.008972 136.838577,139.994217 139.244370,138.979462 C139.876648,141.022675 140.645630,143.036713 141.090378,145.119949 C141.360916,146.387146 141.131195,147.761154 141.062012,149.543091 z"/>
  <path fill="#E4722F" opacity="1.000000" stroke="none" d=" M161.806763,127.279984 C162.963852,121.583916 167.399307,118.567978 172.633514,115.976151 C169.367218,119.714088 165.735901,123.435776 161.806763,127.279984 z"/>
  <path fill="#FFE6C5" opacity="1.000000" stroke="none" d=" M749.745239,109.065201 C748.736694,110.601341 747.343018,112.083885 744.902100,114.680382 C744.902100,110.875412 744.902100,108.415245 744.889404,105.528580 C746.371155,106.405266 747.865540,107.708443 749.745239,109.065201 z"/>
  <path fill="#E4722F" opacity="1.000000" stroke="none" d=" M68.405640,178.022522 C70.819603,175.392838 73.560585,172.682983 76.668137,170.001587 C74.267357,172.667496 71.500008,175.304901 68.405640,178.022522 z"/>
  <path fill="#E4722F" opacity="1.000000" stroke="none" d=" M79.391586,168.006851 C81.820633,165.376953 84.578537,162.672821 87.707932,159.985764 C85.293083,162.646103 82.506760,165.289368 79.391586,168.006851 z"/>
  <path fill="#E4722F" opacity="1.000000" stroke="none" d=" M92.423599,156.044739 C94.495094,153.744888 96.891876,151.360779 99.655685,148.992279 C97.598106,151.325424 95.173492,153.642944 92.423599,156.044739 z"/>
  <path fill="#E4722F" opacity="1.000000" stroke="none" d=" M114.295410,135.897369 C114.037498,131.831390 117.258904,131.000824 120.676453,130.015259 C118.906212,131.966644 116.762642,133.886261 114.295410,135.897369 z"/>
  <path fill="#E4722F" opacity="1.000000" stroke="none" d=" M189.650299,129.011597 C189.634048,132.313782 188.497101,135.151810 184.293228,135.959351 C185.725128,133.668045 187.533997,131.409698 189.650299,129.011597 z"/>
  <path fill="#E4722F" opacity="1.000000" stroke="none" d=" M148.267365,130.299408 C150.346603,130.946655 152.335861,131.964142 154.696960,133.024994 C151.816696,135.012390 149.303894,134.832443 148.267365,130.299408 z"/>
  <path fill="#E4722F" opacity="1.000000" stroke="none" d=" M181.841156,107.247787 C181.775162,105.416245 182.004105,103.425720 182.428772,101.030998 C185.145432,102.983665 183.901993,105.055984 181.841156,107.247787 z"/>
  <path fill="#E4722F" opacity="1.000000" stroke="none" d=" M105.662766,96.028519 C104.562843,97.332840 103.134293,98.680786 101.339020,100.002136 C102.426247,98.674416 103.880196,97.373283 105.662766,96.028519 z"/>
  <path fill="#E4722F" opacity="1.000000" stroke="none" d=" M161.052383,78.571274 C159.455261,77.804512 157.773514,76.713837 156.071396,75.276695 C157.689941,76.035950 159.328842,77.141655 161.052383,78.571274 z"/>
  <path fill="#E4722F" opacity="1.000000" stroke="none" d=" M155.386414,133.039948 C156.276581,131.805801 157.490768,130.530563 159.058655,129.402008 C158.178391,130.698746 156.944427,131.848785 155.386414,133.039948 z"/>
  <path fill="#E4722F" opacity="1.000000" stroke="none" d=" M148.219299,122.343208 C148.567078,123.558411 148.824265,125.193436 148.762741,126.923676 C148.338928,125.600273 148.233826,124.181656 148.219299,122.343208 z"/>
  <path fill="#E4722F" opacity="1.000000" stroke="none" d=" M125.649567,148.040024 C124.870148,149.295807 123.782204,150.647568 122.312485,151.970535 C123.067490,150.673172 124.204269,149.404587 125.649567,148.040024 z"/>
  <path fill="#E4722F" opacity="1.000000" stroke="none" d=" M167.979706,85.624756 C166.723282,84.850853 165.362366,83.771156 164.027740,82.307800 C165.327759,83.055748 166.601486,84.187347 167.979706,85.624756 z"/>
  <path fill="#FFE6C5" opacity="1.000000" stroke="none" d=" M737.693970,104.520294 C735.288086,104.856110 732.586365,104.939346 729.447449,104.908951 C731.806213,104.619453 734.602173,104.443581 737.693970,104.520294 z"/>
  <path fill="#E4722F" opacity="1.000000" stroke="none" d=" M174.002350,91.609444 C172.735535,90.838615 171.370438,89.759468 170.038681,88.295853 C171.349380,89.041298 172.626724,90.171211 174.002350,91.609444 z"/>
  <path fill="#E4722F" opacity="1.000000" stroke="none" d=" M182.574463,136.926575 C181.830612,137.920441 180.769760,138.975296 179.336456,140.002243 C180.061813,138.978760 181.159637,137.983170 182.574463,136.926575 z"/>
  <path fill="#E4722F" opacity="1.000000" stroke="none" d=" M64.585159,32.907570 C64.149734,34.149532 63.414383,35.536907 62.305069,36.940292 C62.715809,35.655193 63.500523,34.354084 64.585159,32.907570 z"/>
  <path fill="#E4722F" opacity="1.000000" stroke="none" d=" M175.077515,62.344723 C176.593231,62.815838 178.250900,63.588028 179.931747,64.714867 C178.376434,64.261612 176.797958,63.453705 175.077515,62.344723 z"/>
  <path fill="#E4722F" opacity="1.000000" stroke="none" d=" M107.408859,142.073273 C107.948128,141.154892 108.798660,140.178665 110.008484,139.328384 C109.485222,140.308014 108.602676,141.161728 107.408859,142.073273 z"/>
  <path fill="#E4722F" opacity="1.000000" stroke="none" d=" M184.039078,68.334656 C184.969528,68.788918 185.983932,69.547783 186.971741,70.684204 C186.004440,70.254257 185.063736,69.446754 184.039078,68.334656 z"/>
  <path fill="#E4722F" opacity="1.000000" stroke="none" d=" M189.938232,74.387299 C190.608231,74.815407 191.325699,75.553886 192.014038,76.655716 C191.318512,76.245270 190.652115,75.471466 189.938232,74.387299 z"/>
  <path fill="#E4722F" opacity="1.000000" stroke="none" d=" M180.040405,65.353210 C180.923843,65.492249 181.912949,65.933304 182.919800,66.734100 C182.007065,66.614296 181.076569,66.134766 180.040405,65.353210 z"/>
  <path fill="#E4722F" opacity="1.000000" stroke="none" d=" M177.259796,111.882050 C177.554535,111.069962 178.138138,110.171333 179.077118,109.413132 C178.804550,110.300873 178.176605,111.048195 177.259796,111.882050 z"/>
  <path fill="#E4722F" opacity="1.000000" stroke="none" d=" M178.666641,140.001022 C178.231644,140.660858 177.484558,141.358627 176.379944,142.039062 C176.799789,141.360809 177.577164,140.699875 178.666641,140.001022 z"/>
  <path fill="#E4722F" opacity="1.000000" stroke="none" d=" M125.344505,127.018257 C125.805382,126.372643 126.586288,125.697189 127.729736,125.048920 C127.283035,125.713547 126.473785,126.350983 125.344505,127.018257 z"/>
  <path fill="#E4722F" opacity="1.000000" stroke="none" d=" M163.044373,80.622787 C162.439407,80.464760 161.766266,80.007828 161.099274,79.206154 C161.729004,79.348900 162.352600,79.836388 163.044373,80.622787 z"/>
  <path fill="#E4722F" opacity="1.000000" stroke="none" d=" M177.022461,94.635025 C176.424362,94.477104 175.753265,94.024879 175.084106,93.230431 C175.707184,93.372375 176.328339,93.856544 177.022461,94.635025 z"/>
  <path fill="#E4722F" opacity="1.000000" stroke="none" d=" M173.283478,115.925720 C173.453094,115.345932 173.913727,114.693451 174.706802,114.030113 C174.550995,114.630516 174.062759,115.241783 173.283478,115.925720 z"/>
  <path fill="#E4722F" opacity="1.000000" stroke="none" d=" M131.727036,142.088730 C131.552383,142.675690 131.082077,143.323853 130.279602,143.985764 C130.442078,143.382996 130.936722,142.766464 131.727036,142.088730 z"/>
  <path fill="#FFE6C5" opacity="1.000000" stroke="none" d=" M743.859863,104.569534 C743.548950,104.840576 743.097778,104.897964 742.321106,104.842117 C742.570312,104.604546 743.144958,104.480217 743.859863,104.569534 z"/>
  <path fill="#E4722F" opacity="1.000000" stroke="none" d=" M182.400208,100.161697 C182.013702,100.150017 181.530563,99.881310 181.040955,99.280258 C181.457520,99.266823 181.880524,99.585747 182.400208,100.161697 z"/>
  <path fill="#E4722F" opacity="1.000000" stroke="none" d=" M110.664581,139.360077 C110.695152,138.951279 111.008781,138.476959 111.647934,137.982635 C111.631531,138.406601 111.289589,138.850571 110.664581,139.360077 z"/>
  <path fill="#E4722F" opacity="1.000000" stroke="none" d=" M123.492905,128.268555 C123.593895,127.872398 123.998672,127.448250 124.725449,127.027161 C124.630531,127.433662 124.213615,127.837097 123.492905,128.268555 z"/>
  <path fill="#E4722F" opacity="1.000000" stroke="none" d=" M174.644913,142.897690 C174.500854,143.257095 174.053314,143.634140 173.291748,144.001648 C173.432297,143.633194 173.886856,143.274277 174.644913,142.897690 z"/>
  <path fill="#E4722F" opacity="1.000000" stroke="none" d=" M180.027740,97.690094 C179.786179,97.777252 179.493835,97.593842 179.129333,97.153023 C179.363754,97.070251 179.670349,97.244896 180.027740,97.690094 z"/>
  <path fill="#E4722F" opacity="1.000000" stroke="none" d=" M100.266472,148.968933 C100.185715,148.738022 100.367271,148.452087 100.800354,148.094147 C100.877518,148.319397 100.703156,148.616653 100.266472,148.968933 z"/>
  <path fill="#E4722F" opacity="1.000000" stroke="none" d=" M126.699142,146.994904 C126.789917,147.226929 126.616928,147.521164 126.191200,147.892151 C126.104095,147.664993 126.269737,147.361038 126.699142,146.994904 z"/>
  <path fill="#E4722F" opacity="1.000000" stroke="none" d=" M170.044342,87.676857 C169.799393,87.767136 169.502274,87.585716 169.135666,87.143394 C169.374832,87.056709 169.683502,87.230934 170.044342,87.676857 z"/>
  <path fill="#E4722F" opacity="1.000000" stroke="none" d=" M101.286957,147.996246 C101.202698,147.761597 101.384560,147.472488 101.820084,147.109955 C101.900177,147.338287 101.726624,147.640030 101.286957,147.996246 z"/>
  <path fill="#E4722F" opacity="1.000000" stroke="none" d=" M175.060287,92.659912 C174.816345,92.758255 174.513687,92.584259 174.134766,92.150215 C174.372864,92.055969 174.687225,92.221771 175.060287,92.659912 z"/>
  <path fill="#E4722F" opacity="1.000000" stroke="none" d=" M127.714005,145.965118 C127.801430,146.191422 127.625526,146.495407 127.190910,146.881882 C127.105019,146.657181 127.277847,146.349991 127.714005,145.965118 z"/>
  <path fill="#E4722F" opacity="1.000000" stroke="none" d=" M121.685905,151.971161 C121.772858,152.214905 121.587540,152.506714 121.142410,152.863861 C121.059616,152.625870 121.236626,152.322540 121.685905,151.971161 z"/>
  <path fill="#E4722F" opacity="1.000000" stroke="none" d=" M120.663361,152.954010 C120.762970,153.188324 120.600037,153.492935 120.181488,153.879272 C120.084175,153.648773 120.242493,153.336548 120.663361,152.954010 z"/>
  <path fill="#E4722F" opacity="1.000000" stroke="none" d=" M119.696434,153.990967 C119.787369,154.222580 119.615883,154.518478 119.190887,154.890701 C119.102913,154.663101 119.268456,154.359192 119.696434,153.990967 z"/>
  <path fill="#E4722F" opacity="1.000000" stroke="none" d=" M118.698578,154.999634 C118.785645,155.235703 118.604675,155.533569 118.164749,155.908157 C118.080696,155.677048 118.255615,155.369247 118.698578,154.999634 z"/>
  <path fill="#E4722F" opacity="1.000000" stroke="none" d=" M91.347107,157.067413 C91.255188,156.827377 91.431244,156.523636 91.871033,156.149414 C91.961548,156.387192 91.788315,156.695450 91.347107,157.067413 z"/>
  <path fill="#E4722F" opacity="1.000000" stroke="none" d=" M90.305305,158.024719 C90.224976,157.781464 90.416130,157.492233 90.869102,157.141571 C90.946205,157.379669 90.761497,157.679199 90.305305,158.024719 z"/>
  <path fill="#E4722F" opacity="1.000000" stroke="none" d=" M89.275314,159.018280 C89.190758,158.786423 89.371483,158.486832 89.811996,158.111725 C89.894722,158.340973 89.717659,158.645752 89.275314,159.018280 z"/>
  <path fill="#E4722F" opacity="1.000000" stroke="none" d=" M115.716141,157.975403 C115.805595,158.209396 115.627151,158.508347 115.191605,158.886688 C115.105743,158.657486 115.276993,158.348923 115.716141,157.975403 z"/>
  <path fill="#E4722F" opacity="1.000000" stroke="none" d=" M114.698059,158.995361 C114.774895,159.231094 114.583664,159.527466 114.127701,159.892914 C114.051987,159.659973 114.240990,159.358002 114.698059,158.995361 z"/>
  <path fill="#E4722F" opacity="1.000000" stroke="none" d=" M179.038773,96.675140 C178.803177,96.766632 178.502197,96.591698 178.127411,96.157196 C178.360199,96.067986 178.666794,96.238342 179.038773,96.675140 z"/>
  <path fill="#E4722F" opacity="1.000000" stroke="none" d=" M78.309509,169.017639 C78.219376,168.779480 78.396675,168.486450 78.829239,168.120972 C78.915314,168.353256 78.746132,168.658005 78.309509,169.017639 z"/>
  <path fill="#E4722F" opacity="1.000000" stroke="none" d=" M77.289696,169.993652 C77.203514,169.752731 77.385208,169.466751 77.819702,169.111786 C77.900856,169.344727 77.729218,169.646652 77.289696,169.993652 z"/>
  <path fill="#E4722F" opacity="1.000000" stroke="none" d=" M178.043976,95.674896 C177.801193,95.769753 177.500259,95.594467 177.126892,95.158646 C177.364914,95.066994 177.675369,95.235878 178.043976,95.674896 z"/>
  <path fill="#E4722F" opacity="1.000000" stroke="none" d=" M67.326424,179.042023 C67.233543,178.799301 67.410149,178.500854 67.846771,178.131805 C67.936493,178.369583 67.766197,178.677917 67.326424,179.042023 z"/>
  <path fill="#E4722F" opacity="1.000000" stroke="none" d=" M66.318237,180.028198 C66.227272,179.788620 66.404678,179.492905 66.840057,179.126831 C66.927551,179.361679 66.757080,179.666870 66.318237,180.028198 z"/>
  <path fill="#E4722F" opacity="1.000000" stroke="none" d=" M65.304993,181.019165 C65.215080,180.777328 65.394905,180.485931 65.829559,180.122101 C65.914505,180.356308 65.744614,180.662949 65.304993,181.019165 z"/>
  <path fill="#E4722F" opacity="1.000000" stroke="none" d=" M64.278671,181.987518 C64.197495,181.755615 64.378746,181.466080 64.814621,181.106995 C64.893188,181.334930 64.717133,181.632431 64.278671,181.987518 z"/>
  <path fill="#E4722F" opacity="1.000000" stroke="none" d=" M159.742126,129.303314 C159.605148,129.056030 159.688721,128.709778 160.071045,128.358902 C160.369659,128.702591 160.233948,128.985962 159.742126,129.303314 z"/>
  <path fill="#E4722F" opacity="1.000000" stroke="none" d=" M188.971893,73.315491 C189.211624,73.227798 189.506378,73.409332 189.869415,73.850563 C189.634094,73.935074 189.330505,73.759895 188.971893,73.315491 z"/>
  <path fill="#E4722F" opacity="1.000000" stroke="none" d=" M180.745911,108.334610 C180.630127,108.071899 180.726761,107.731850 181.122238,107.450073 C181.382095,107.829201 181.227844,108.078842 180.745911,108.334610 z"/>
  <path fill="#E4722F" opacity="1.000000" stroke="none" d=" M179.745499,109.338158 C179.631119,109.075455 179.728119,108.736511 180.123077,108.458153 C180.378754,108.836708 180.224030,109.084435 179.745499,109.338158 z"/>
  <path fill="#E4722F" opacity="1.000000" stroke="none" d=" M176.261658,112.953415 C176.166687,112.736031 176.323914,112.443169 176.722946,112.063385 C176.814453,112.276955 176.664154,112.577446 176.261658,112.953415 z"/>
  <path fill="#E4722F" opacity="1.000000" stroke="none" d=" M175.279846,113.986420 C175.188095,113.752930 175.363235,113.465714 175.783035,113.092781 C175.867371,113.315605 175.707047,113.624153 175.279846,113.986420 z"/>
  <path fill="#E4722F" opacity="1.000000" stroke="none" d=" M187.980774,72.313629 C188.216553,72.223434 188.511124,72.398521 188.879669,72.828590 C188.648956,72.915352 188.344254,72.747124 187.980774,72.313629 z"/>
  <path fill="#E4722F" opacity="1.000000" stroke="none" d=" M186.986008,71.307693 C187.223740,71.217781 187.515610,71.393936 187.879730,71.824280 C187.648026,71.910225 187.344086,71.741989 186.986008,71.307693 z"/>
  <path fill="#E4722F" opacity="1.000000" stroke="none" d=" M182.975159,67.316711 C183.209076,67.216698 183.512192,67.379013 183.896820,67.795441 C183.667023,67.892723 183.355698,67.735886 182.975159,67.316711 z"/>
  <path fill="#E4722F" opacity="1.000000" stroke="none" d=" M147.257568,121.074913 C147.401230,120.891243 147.610794,120.953423 147.910995,121.218201 C148.027496,121.333893 147.670380,121.406311 147.670380,121.406311 C147.670380,121.406311 147.349319,121.233856 147.257568,121.074913 z"/>
  <path fill="#E4722F" opacity="1.000000" stroke="none" d=" M164.023224,81.692352 C163.787567,81.775581 163.492279,81.591568 163.130432,81.145889 C163.363770,81.064522 163.663681,81.244812 164.023224,81.692352 z"/>
  <path fill="#E4722F" opacity="1.000000" stroke="none" d=" M160.604980,128.305786 C160.512299,128.035080 160.659668,127.706963 161.102127,127.422638 C161.340744,127.817154 161.156677,128.077789 160.604980,128.305786 z"/>
  <path fill="#E4722F" opacity="1.000000" stroke="none" d=" M122.335876,129.077087 C122.275383,128.821259 122.485397,128.531021 122.977951,128.235931 C123.042465,128.501617 122.824425,128.772156 122.335876,129.077087 z"/>
  <path fill="#E4722F" opacity="1.000000" stroke="none" d=" M102.301636,147.013763 C102.218689,146.779892 102.400909,146.486069 102.842743,146.125366 C102.923836,146.356949 102.745316,146.655380 102.301636,147.013763 z"/>
  <path fill="#E4722F" opacity="1.000000" stroke="none" d=" M121.305176,130.012726 C121.219627,129.767944 121.404388,129.479370 121.848373,129.130371 C121.930229,129.369614 121.752861,129.669266 121.305176,130.012726 z"/>
  <path fill="#E4722F" opacity="1.000000" stroke="none" d=" M169.052719,86.663177 C168.814270,86.762184 168.511734,86.591957 168.128525,86.164841 C168.361450,86.069946 168.675034,86.231956 169.052719,86.663177 z"/>
  <path fill="#E4722F" opacity="1.000000" stroke="none" d=" M98.698242,102.003799 C98.792328,102.240250 98.621803,102.532799 98.199615,102.900360 C98.109840,102.670219 98.271729,102.365059 98.698242,102.003799 z"/>
  <path fill="#E4722F" opacity="1.000000" stroke="none" d=" M99.698555,101.000717 C99.793312,101.241608 99.622246,101.532349 99.199120,101.893250 C99.108955,101.659142 99.270851,101.354858 99.698555,101.000717 z"/>
  <path fill="#E4722F" opacity="1.000000" stroke="none" d=" M100.716324,100.015686 C100.805290,100.255196 100.629173,100.541382 100.202103,100.895905 C100.117844,100.663620 100.284546,100.362991 100.716324,100.015686 z"/>
  <path fill="#E4722F" opacity="1.000000" stroke="none" d=" M183.677002,135.961456 C183.761551,136.203674 183.577347,136.499435 183.128250,136.852661 C183.044983,136.611740 183.226608,136.313354 183.677002,135.961456 z"/>
  <path fill="#E4722F" opacity="1.000000" stroke="none" d=" M180.999847,98.709358 C180.764130,98.793961 180.471512,98.614258 180.110428,98.177322 C180.342285,98.095070 180.642609,98.270065 180.999847,98.709358 z"/>
  <path fill="#E4722F" opacity="1.000000" stroke="none" d=" M106.329590,143.051498 C106.241814,142.807602 106.422028,142.506271 106.868858,142.143890 C106.956177,142.386597 106.776878,142.690323 106.329590,143.051498 z"/>
  <path fill="#E4722F" opacity="1.000000" stroke="none" d=" M175.745636,142.047409 C175.811890,142.294464 175.607285,142.563934 175.145630,142.882004 C175.083969,142.643677 175.279373,142.356750 175.745636,142.047409 z"/>
  <path fill="#E4722F" opacity="1.000000" stroke="none" d=" M105.321228,144.032928 C105.230942,143.792206 105.409340,143.494797 105.848358,143.129379 C105.935959,143.366318 105.762939,143.671280 105.321228,144.032928 z"/>
  <path fill="#E4722F" opacity="1.000000" stroke="none" d=" M104.328415,145.037567 C104.231796,144.796021 104.403351,144.496643 104.832870,144.124664 C104.926086,144.361267 104.761330,144.670502 104.328415,145.037567 z"/>
  <path fill="#E4722F" opacity="1.000000" stroke="none" d=" M103.327385,146.046524 C103.231506,145.803619 103.405327,145.504608 103.837128,145.131836 C103.929092,145.368851 103.763092,145.679626 103.327385,146.046524 z"/>
</svg>